<?xml version="1.0" encoding="utf-8"?>
<svg xmlns="http://www.w3.org/2000/svg">
<symbol id="arrow-fill" viewBox="0 0 6 12">
<path d="M6 6L0 12V0L6 6Z"/>

</symbol>
<symbol id="arrow" viewBox="0 0 17 28">
<path d="M6.55841 14L16.8709 24.3125L13.9251 27.2583L0.666748 14L13.9251 0.741638L16.8709 3.68747L6.55841 14Z"/>

</symbol>
<symbol id="border" viewBox="0 0 220 220">
<mask id="path-1-inside-1_152_467" fill="white">
<path d="M217.929 110C219.073 110 220.002 110.928 219.981 112.072C219.486 138.34 209.603 163.591 192.082 183.23C174.561 202.868 150.596 215.557 124.555 219.033C123.421 219.184 122.393 218.366 122.263 217.23C122.133 216.093 122.95 215.069 124.084 214.916C149.115 211.557 172.147 199.352 188.991 180.472C205.834 161.592 215.343 137.322 215.837 112.072C215.86 110.928 216.785 110 217.929 110Z"/>
</mask>
<path d="M217.929 110C219.073 110 220.002 110.928 219.981 112.072C219.486 138.34 209.603 163.591 192.082 183.23C174.561 202.868 150.596 215.557 124.555 219.033C123.421 219.184 122.393 218.366 122.263 217.23C122.133 216.093 122.95 215.069 124.084 214.916C149.115 211.557 172.147 199.352 188.991 180.472C205.834 161.592 215.343 137.322 215.837 112.072C215.86 110.928 216.785 110 217.929 110Z" stroke="#5956E9" stroke-width="8" mask="url(#path-1-inside-1_152_467)"/>
<mask id="path-2-inside-2_152_467" fill="white">
<path d="M110 2.07128C110 0.927348 110.928 -0.00203427 112.072 0.0194806C138.34 0.513849 163.591 10.3974 183.23 27.9182C202.868 45.4389 215.557 69.4035 219.033 95.4454C219.184 96.5792 218.366 97.6067 217.23 97.7367C216.093 97.8667 215.069 97.05 214.916 95.9162C211.557 70.885 199.352 47.853 180.472 31.0093C161.592 14.1657 137.322 4.65664 112.072 4.16282C110.928 4.14045 110 3.21522 110 2.07128Z"/>
</mask>
<path d="M110 2.07128C110 0.927348 110.928 -0.00203427 112.072 0.0194806C138.34 0.513849 163.591 10.3974 183.23 27.9182C202.868 45.4389 215.557 69.4035 219.033 95.4454C219.184 96.5792 218.366 97.6067 217.23 97.7367C216.093 97.8667 215.069 97.05 214.916 95.9162C211.557 70.885 199.352 47.853 180.472 31.0093C161.592 14.1657 137.322 4.65664 112.072 4.16282C110.928 4.14045 110 3.21522 110 2.07128Z" stroke="#5956E9" stroke-width="8" mask="url(#path-2-inside-2_152_467)"/>
<mask id="path-3-inside-3_152_467" fill="white">
<path d="M2.07128 110C0.927343 110 -0.00203912 109.072 0.0194757 107.928C0.513843 81.6603 10.3974 56.4092 27.9182 36.7704C45.4389 17.1317 69.4035 4.44301 95.4453 0.967143C96.5792 0.815807 97.6067 1.63374 97.7367 2.77027C97.8666 3.90679 97.05 4.93147 95.9162 5.08364C70.8849 8.44337 47.853 20.6485 31.0093 39.5282C14.1657 58.408 4.65663 82.6776 4.16282 107.929C4.14045 109.072 3.21522 110 2.07128 110Z"/>
</mask>
<path d="M2.07128 110C0.927343 110 -0.00203912 109.072 0.0194757 107.928C0.513843 81.6603 10.3974 56.4092 27.9182 36.7704C45.4389 17.1317 69.4035 4.44301 95.4453 0.967143C96.5792 0.815807 97.6067 1.63374 97.7367 2.77027C97.8666 3.90679 97.05 4.93147 95.9162 5.08364C70.8849 8.44337 47.853 20.6485 31.0093 39.5282C14.1657 58.408 4.65663 82.6776 4.16282 107.929C4.14045 109.072 3.21522 110 2.07128 110Z" stroke="#5956E9" stroke-width="8" mask="url(#path-3-inside-3_152_467)"/>
<mask id="path-4-inside-4_152_467" fill="white">
<path d="M110 217.929C110 219.073 109.072 220.002 107.928 219.981C81.6602 219.486 56.4091 209.603 36.7704 192.082C17.1316 174.561 4.44299 150.596 0.967127 124.555C0.815791 123.421 1.63372 122.393 2.77026 122.263C3.90678 122.133 4.93145 122.95 5.08363 124.084C8.44335 149.115 20.6485 172.147 39.5282 188.991C58.4079 205.834 82.6776 215.343 107.928 215.837C109.072 215.86 110 216.785 110 217.929Z"/>
</mask>
<path d="M110 217.929C110 219.073 109.072 220.002 107.928 219.981C81.6602 219.486 56.4091 209.603 36.7704 192.082C17.1316 174.561 4.44299 150.596 0.967127 124.555C0.815791 123.421 1.63372 122.393 2.77026 122.263C3.90678 122.133 4.93145 122.95 5.08363 124.084C8.44335 149.115 20.6485 172.147 39.5282 188.991C58.4079 205.834 82.6776 215.343 107.928 215.837C109.072 215.86 110 216.785 110 217.929Z" stroke="#5956E9" stroke-width="8" mask="url(#path-4-inside-4_152_467)"/>

</symbol>
<symbol id="browser" viewBox="0 0 50 48">
<path d="M22.0703 24H23.5352V22.5352C23.5352 21.7268 22.8786 21.0703 22.0703 21.0703C21.262 21.0703 20.6055 21.7268 20.6055 22.5352C20.6055 23.3435 21.262 24 22.0703 24Z"/>
<path d="M23.5352 26.9297C23.2403 26.9297 18.8457 26.9297 19.1406 26.9297C18.3323 26.9297 17.6758 27.5862 17.6758 28.3945V29.8594H23.5352V26.9297Z"/>
<path d="M29.3945 22.5352C29.3945 21.7268 28.738 21.0703 27.9297 21.0703C27.1214 21.0703 26.4648 21.7268 26.4648 22.5352V24H27.9297C28.738 24 29.3945 23.3435 29.3945 22.5352Z"/>
<path d="M23.5352 32.7891H20.6055V38.6484H29.3945V32.7891H26.4648V34.2539C26.4648 35.0634 25.8095 35.7188 25 35.7188C24.1905 35.7188 23.5352 35.0634 23.5352 34.2539V32.7891Z"/>
<path d="M0 43.043C0 45.4661 1.97144 47.4375 4.39453 47.4375H45.6055C48.0286 47.4375 50 45.4661 50 43.043V15.2109H0V43.043ZM14.7461 28.3945C14.7461 26.3689 16.1308 24.676 17.9985 24.1694C17.7944 23.6632 17.6758 23.1135 17.6758 22.5352C17.6758 20.1121 19.6472 18.1406 22.0703 18.1406C23.1998 18.1406 24.2207 18.5808 25 19.2835C25.7793 18.5808 26.8002 18.1406 27.9297 18.1406C30.3528 18.1406 32.3242 20.1121 32.3242 22.5352C32.3242 23.1135 32.2056 23.6632 32.0015 24.1694C33.8692 24.676 35.2539 26.3689 35.2539 28.3945V31.3242C35.2539 32.1337 34.5985 32.7891 33.7891 32.7891H32.3242V40.1133C32.3242 40.9228 31.6689 41.5781 30.8594 41.5781H19.1406C18.3311 41.5781 17.6758 40.9228 17.6758 40.1133V32.7891H16.2109C15.4015 32.7891 14.7461 32.1337 14.7461 31.3242V28.3945Z"/>
<path d="M32.3243 28.3945C32.3243 27.5862 31.6677 26.9297 30.8594 26.9297C30.5645 26.9297 26.17 26.9297 26.4649 26.9297V29.8594H32.3243V28.3945Z"/>
<path d="M45.6055 0.5625H4.39453C1.97144 0.5625 0 2.53394 0 4.95703V12.2812H50V4.95703C50 2.53394 48.0286 0.5625 45.6055 0.5625ZM7.32155 9.35156C6.51245 9.35156 5.8567 8.69582 5.8567 7.88672C5.8567 7.07762 6.51245 6.42188 7.32155 6.42188C8.13065 6.42188 8.78639 7.07762 8.78639 7.88672C8.78639 8.69582 8.13065 9.35156 7.32155 9.35156ZM13.2786 9.35156C12.4695 9.35156 11.8137 8.69582 11.8137 7.88672C11.8137 7.07762 12.4695 6.42188 13.2786 6.42188C14.0877 6.42188 14.7434 7.07762 14.7434 7.88672C14.7434 8.69582 14.0877 9.35156 13.2786 9.35156ZM19.138 9.35156C18.3289 9.35156 17.6731 8.69582 17.6731 7.88672C17.6731 7.07762 18.3289 6.42188 19.138 6.42188C19.9471 6.42188 20.6028 7.07762 20.6028 7.88672C20.6028 8.69582 19.9471 9.35156 19.138 9.35156ZM42.6758 9.35156H33.7891C32.9796 9.35156 32.3242 8.6962 32.3242 7.88672C32.3242 7.07724 32.9796 6.42188 33.7891 6.42188H42.6758C43.4853 6.42188 44.1406 7.07724 44.1406 7.88672C44.1406 8.6962 43.4853 9.35156 42.6758 9.35156Z"/>

</symbol>
<symbol id="cell-phone" viewBox="0 0 30 50">
<path d="M25.5184 0H4.48136C2.46802 0 0.842773 1.63253 0.842773 3.64223V46.3614C0.842773 48.3693 2.46802 50 4.48136 50H25.5184C27.5281 50 29.157 48.3693 29.157 46.3614V3.64223C29.157 1.63253 27.5281 0 25.5184 0ZM9.80895 2.21194H20.1945C20.4569 2.21194 20.67 2.60367 20.67 3.08833C20.67 3.57299 20.4569 3.96655 20.1945 3.96655H9.80895C9.54476 3.96655 9.33523 3.57299 9.33523 3.08833C9.33523 2.60367 9.54476 2.21194 9.80895 2.21194ZM15.0017 46.4051C13.7208 46.4051 12.6786 45.3629 12.6786 44.0802C12.6786 42.7975 13.7208 41.759 15.0017 41.759C16.279 41.759 17.3212 42.7975 17.3212 44.0802C17.3212 45.3629 16.279 46.4051 15.0017 46.4051ZM26.4313 38.4447H3.57034V6.14569H26.4313V38.4447Z"/>

</symbol>
<symbol id="checkbox-circle-fill" viewBox="0 0 20 20">
<path d="M10 20C4.477 20 0 15.523 0 10C0 4.477 4.477 0 10 0C15.523 0 20 4.477 20 10C20 15.523 15.523 20 10 20ZM9.003 14L16.073 6.929L14.659 5.515L9.003 11.172L6.174 8.343L4.76 9.757L9.003 14Z"/>

</symbol>
<symbol id="comment" viewBox="0 0 48 44">
<path d="M40.9686 0.369232H6.98254C3.42915 0.369232 0.538086 3.2603 0.538086 6.81369V27.6125C0.538086 31.159 3.41656 34.0449 6.95965 34.0569V43.4957L20.5229 34.0578H40.9686C44.522 34.0578 47.4131 31.1667 47.4131 27.6125V6.81369C47.4131 3.2603 44.522 0.369232 40.9686 0.369232ZM34.8669 24.54H13.0842V21.7934H34.8669V24.54ZM34.8669 18.6806H13.0842V15.9341H34.8669V18.6806ZM34.8669 12.8213H13.0842V10.0747H34.8669V12.8213Z"/>

</symbol>
<symbol id="copyright-line" viewBox="0 0 20 20">
<path d="M10 0C15.52 0 20 4.48 20 10C20 15.52 15.52 20 10 20C4.48 20 0 15.52 0 10C0 4.48 4.48 0 10 0ZM10 2C5.58 2 2 5.58 2 10C2 14.42 5.58 18 10 18C14.42 18 18 14.42 18 10C18 5.58 14.42 2 10 2ZM10 5C11.82 5 13.413 5.973 14.288 7.428L12.574 8.457C12.3043 8.00724 11.9213 7.63605 11.4634 7.38045C11.0055 7.12484 10.4885 6.99374 9.96412 7.00023C9.43971 7.00672 8.92617 7.15056 8.4747 7.41742C8.02323 7.68428 7.6496 8.06483 7.39107 8.52112C7.13254 8.97742 6.99815 9.49351 7.00128 10.0179C7.00442 10.5424 7.14498 11.0568 7.40895 11.51C7.67292 11.9632 8.05107 12.3392 8.5057 12.6007C8.96033 12.8621 9.47556 12.9998 10 13C10.5181 13.0003 11.0275 12.8664 11.4785 12.6112C11.9294 12.356 12.3065 11.9883 12.573 11.544L14.288 12.572C13.726 13.5106 12.8716 14.239 11.8559 14.6453C10.8402 15.0517 9.71922 15.1137 8.6649 14.8217C7.61058 14.5298 6.68114 13.9 6.01914 13.029C5.35713 12.1581 4.99912 11.094 5 10C5 7.24 7.24 5 10 5Z"/>

</symbol>
<symbol id="download-2-fill" viewBox="0 0 20 18">
<path d="M2 16H18V9H20V17C20 17.2652 19.8946 17.5196 19.7071 17.7071C19.5196 17.8946 19.2652 18 19 18H1C0.734784 18 0.48043 17.8946 0.292893 17.7071C0.105357 17.5196 0 17.2652 0 17V9H2V16ZM12 6H17L10 13L3 6H8V0H12V6Z"/>

</symbol>
<symbol id="eye-scanner" viewBox="0 0 56 56">
<g clip-path="url(#clip0_43_15)">
<path d="M55.7736 28.861C49.4782 40.0097 39.0949 46.6667 27.9999 46.6667C16.9049 46.6667 6.52157 40.0097 0.226238 28.861C-0.0747617 28.3267 -0.0747617 27.6757 0.226238 27.1413C6.52157 15.9903 16.9049 9.33334 27.9999 9.33334C39.0949 9.33334 49.4782 15.9903 55.7736 27.139C56.0746 27.6733 56.0746 28.3267 55.7736 28.861ZM27.9999 18.6667C22.8526 18.6667 18.6666 22.8527 18.6666 28C18.6666 33.1473 22.8526 37.3333 27.9999 37.3333C33.1472 37.3333 37.3332 33.1473 37.3332 28C37.3332 22.8527 33.1472 18.6667 27.9999 18.6667Z"/>
<path d="M53.6666 37.3333C52.3786 37.3333 51.3333 38.3787 51.3333 39.6667V49C51.3333 50.2857 50.2856 51.3333 48.9999 51.3333H39.6666C38.3786 51.3333 37.3333 52.3787 37.3333 53.6667C37.3333 54.9547 38.3786 56 39.6666 56H48.9999C52.8593 56 55.9999 52.8593 55.9999 49V39.6667C55.9999 38.3787 54.9546 37.3333 53.6666 37.3333Z"/>
<path d="M2.33333 37.3333C1.04533 37.3333 0 38.3787 0 39.6667V49C0 52.8593 3.14067 56 7 56H16.3333C17.6213 56 18.6667 54.9547 18.6667 53.6667C18.6667 52.3787 17.6213 51.3333 16.3333 51.3333H7C5.71433 51.3333 4.66667 50.2857 4.66667 49V39.6667C4.66667 38.3787 3.62133 37.3333 2.33333 37.3333Z"/>
<path d="M48.9999 -7.62939e-06H39.6666C38.3786 -7.62939e-06 37.3333 1.04533 37.3333 2.33333C37.3333 3.62133 38.3786 4.66666 39.6666 4.66666H48.9999C50.2856 4.66666 51.3333 5.71433 51.3333 6.99999V16.3333C51.3333 17.6213 52.3786 18.6667 53.6666 18.6667C54.9546 18.6667 55.9999 17.6213 55.9999 16.3333V6.99999C55.9999 3.14066 52.8593 -7.62939e-06 48.9999 -7.62939e-06Z"/>
<path d="M16.3333 -7.62939e-06H7C3.14067 -7.62939e-06 0 3.14066 0 6.99999V16.3333C0 17.6213 1.04533 18.6667 2.33333 18.6667C3.62133 18.6667 4.66667 17.6213 4.66667 16.3333V6.99999C4.66667 5.71433 5.71433 4.66666 7 4.66666H16.3333C17.6213 4.66666 18.6667 3.62133 18.6667 2.33333C18.6667 1.04533 17.6213 -7.62939e-06 16.3333 -7.62939e-06Z"/>
</g>
<defs>
<clipPath id="clip0_43_15">
<rect width="56" height="56" transform="matrix(1 0 0 -1 0 56)"/>
</clipPath>
</defs>

</symbol>
<symbol id="facebook-fill" viewBox="0 0 11 20">
<path d="M7 11.5H9.5L10.5 7.5H7V5.5C7 4.47 7 3.5 9 3.5H10.5V0.14C10.174 0.0970001 8.943 0 7.643 0C4.928 0 3 1.657 3 4.7V7.5H0V11.5H3V20H7V11.5Z"/>

</symbol>
<symbol id="home-2-fill" viewBox="0 0 22 20">
<path d="M19 19C19 19.2652 18.8946 19.5196 18.7071 19.7071C18.5196 19.8946 18.2652 20 18 20H4C3.73478 20 3.48043 19.8946 3.29289 19.7071C3.10536 19.5196 3 19.2652 3 19V10H0L10.327 0.611996C10.5111 0.444474 10.7511 0.351639 11 0.351639C11.2489 0.351639 11.4889 0.444474 11.673 0.611996L22 10H19V19Z"/>

</symbol>
<symbol id="instagram-fill" viewBox="0 0 20 20">
<path d="M10 0C12.717 0 13.056 0.00999994 14.122 0.0599999C15.187 0.11 15.912 0.277 16.55 0.525C17.21 0.779 17.766 1.123 18.322 1.678C18.8305 2.1779 19.224 2.78259 19.475 3.45C19.722 4.087 19.89 4.813 19.94 5.878C19.987 6.944 20 7.283 20 10C20 12.717 19.99 13.056 19.94 14.122C19.89 15.187 19.722 15.912 19.475 16.55C19.2247 17.2178 18.8311 17.8226 18.322 18.322C17.822 18.8303 17.2173 19.2238 16.55 19.475C15.913 19.722 15.187 19.89 14.122 19.94C13.056 19.987 12.717 20 10 20C7.283 20 6.944 19.99 5.878 19.94C4.813 19.89 4.088 19.722 3.45 19.475C2.78233 19.2245 2.17753 18.8309 1.678 18.322C1.16941 17.8222 0.775931 17.2175 0.525 16.55C0.277 15.913 0.11 15.187 0.0599999 14.122C0.0129999 13.056 0 12.717 0 10C0 7.283 0.00999994 6.944 0.0599999 5.878C0.11 4.812 0.277 4.088 0.525 3.45C0.775236 2.78218 1.1688 2.17732 1.678 1.678C2.17767 1.16923 2.78243 0.775729 3.45 0.525C4.088 0.277 4.812 0.11 5.878 0.0599999C6.944 0.0129999 7.283 0 10 0ZM10 5C8.67392 5 7.40215 5.52678 6.46447 6.46447C5.52678 7.40215 5 8.67392 5 10C5 11.3261 5.52678 12.5979 6.46447 13.5355C7.40215 14.4732 8.67392 15 10 15C11.3261 15 12.5979 14.4732 13.5355 13.5355C14.4732 12.5979 15 11.3261 15 10C15 8.67392 14.4732 7.40215 13.5355 6.46447C12.5979 5.52678 11.3261 5 10 5ZM16.5 4.75C16.5 4.41848 16.3683 4.10054 16.1339 3.86612C15.8995 3.6317 15.5815 3.5 15.25 3.5C14.9185 3.5 14.6005 3.6317 14.3661 3.86612C14.1317 4.10054 14 4.41848 14 4.75C14 5.08152 14.1317 5.39946 14.3661 5.63388C14.6005 5.8683 14.9185 6 15.25 6C15.5815 6 15.8995 5.8683 16.1339 5.63388C16.3683 5.39946 16.5 5.08152 16.5 4.75ZM10 7C10.7956 7 11.5587 7.31607 12.1213 7.87868C12.6839 8.44129 13 9.20435 13 10C13 10.7956 12.6839 11.5587 12.1213 12.1213C11.5587 12.6839 10.7956 13 10 13C9.20435 13 8.44129 12.6839 7.87868 12.1213C7.31607 11.5587 7 10.7956 7 10C7 9.20435 7.31607 8.44129 7.87868 7.87868C8.44129 7.31607 9.20435 7 10 7Z"/>

</symbol>
<symbol id="mail-fill" viewBox="0 0 20 18">
<path d="M1 0H19C19.2652 0 19.5196 0.105357 19.7071 0.292893C19.8946 0.48043 20 0.734784 20 1V17C20 17.2652 19.8946 17.5196 19.7071 17.7071C19.5196 17.8946 19.2652 18 19 18H1C0.734784 18 0.48043 17.8946 0.292893 17.7071C0.105357 17.5196 0 17.2652 0 17V1C0 0.734784 0.105357 0.48043 0.292893 0.292893C0.48043 0.105357 0.734784 0 1 0ZM10.06 8.683L3.648 3.238L2.353 4.762L10.073 11.317L17.654 4.757L16.346 3.244L10.061 8.683H10.06Z"/>

</symbol>
<symbol id="male-telemarketer" viewBox="0 0 50 50">
<g clip-path="url(#clip0_42_127)">
<path d="M15.3748 22.2756C17.6645 27.3286 22.5665 29.5281 24.9997 29.5281C26.5995 29.5281 29.2667 28.5764 31.557 26.4888C30.7196 26.5472 29.8246 26.5768 28.8681 26.5768C28.6437 26.5768 28.4083 26.5748 28.1567 26.5708C27.6745 26.9421 27.0773 27.1515 26.4575 27.1515H24.4197C22.884 27.1515 21.6347 25.9021 21.6347 24.3664C21.6347 22.8307 22.884 21.5814 24.4197 21.5814H26.4575C27.1937 21.5814 27.8822 21.8683 28.3929 22.3633C28.5626 22.3652 28.7298 22.366 28.894 22.366C31.5246 22.366 33.2583 22.1247 34.3924 21.8337C34.2453 21.4757 34.1651 21.0841 34.1651 20.6751V13.6138C34.1651 12.8793 34.4378 12.1751 34.9092 11.6312C34.6576 9.67283 34.201 8.17775 33.5195 7.07489C32.1153 4.80218 29.408 3.74374 24.9997 3.74374C21.3426 3.74374 18.8172 4.50289 17.2794 6.06454C16.0872 7.27514 15.3964 9.00253 15.0735 11.6113C15.5555 12.1573 15.8343 12.8687 15.8343 13.6138V20.6751C15.8344 21.2627 15.6655 21.811 15.3748 22.2756Z"/>
<path d="M10.3645 22.3422H12.809C13.7293 22.3422 14.476 21.5958 14.476 20.6751V13.6138C14.476 12.9987 14.1419 12.4627 13.6463 12.1739C14.1922 6.39182 16.4234 2.38506 24.9999 2.38506C29.9251 2.38506 32.9996 3.64851 34.6755 6.36084C35.6507 7.9392 36.1198 9.97783 36.3389 12.1826C35.8512 12.4735 35.5238 13.0047 35.5238 13.6137V20.675C35.5238 21.4688 36.0791 22.1316 36.8221 22.2997C35.7445 23.0045 33.5135 23.7244 28.8941 23.7244C28.5199 23.7244 28.1299 23.7196 27.7237 23.7099C27.4859 23.2527 27.0088 22.9398 26.4578 22.9398H24.4201C23.6324 22.9398 22.9936 23.5785 22.9936 24.3663C22.9936 25.1541 23.6324 25.7928 24.4201 25.7928H26.4578C26.9338 25.7928 27.3544 25.5587 27.6134 25.2005C28.0424 25.2113 28.4625 25.2181 28.8684 25.2181C34.0754 25.218 37.3855 24.3292 38.7261 22.5658C38.7832 22.4908 38.8352 22.4161 38.8826 22.3422H39.6357C40.5561 22.3422 41.3026 21.5958 41.3026 20.6751V13.6138C41.3026 12.6933 40.5562 11.9469 39.6357 11.9469H38.7162C38.4575 9.28307 37.8841 7.01539 36.7046 5.1069C34.5815 1.67047 30.7526 0 24.9998 0C19.2466 0 15.4181 1.67047 13.2949 5.10704C12.1155 7.01552 11.5423 9.28293 11.2835 11.947H10.3643C9.44365 11.947 8.69727 12.6933 8.69727 13.614V20.6753C8.69727 21.5958 9.44379 22.3422 10.3645 22.3422Z"/>
<path d="M45.1536 43.1065C44.5993 39.6603 43.4582 35.2211 41.1698 33.6438C39.6093 32.5677 34.1616 29.657 31.8353 28.4142L31.7864 28.3881C31.5202 28.2459 31.1953 28.2744 30.958 28.4607C29.7376 29.4186 28.4016 30.0639 26.9872 30.3787C26.7373 30.4342 26.532 30.6121 26.4411 30.8515L24.9998 34.6501L23.5585 30.8515C23.4677 30.6119 23.2624 30.4342 23.0124 30.3787C21.598 30.0639 20.2618 29.4186 19.0412 28.4607C18.804 28.2743 18.4791 28.2458 18.2129 28.3881C15.9127 29.6171 10.3944 32.5889 8.8364 33.6392C6.20096 35.4147 5.05 41.8372 4.84609 43.1066C4.82584 43.2325 4.83753 43.3613 4.88005 43.4814C4.97433 43.7477 7.39173 50.0001 24.9997 50.0001C42.6074 50.0001 45.025 43.7477 45.1194 43.4816C45.1621 43.3612 45.1738 43.2323 45.1536 43.1065ZM36.955 39.149H29.9811V37.6803H36.955V39.149Z"/>
</g>
<defs>
<clipPath id="clip0_42_127">
<rect width="50" height="50"/>
</clipPath>
</defs>

</symbol>
<symbol id="message-circle" viewBox="0 0 20 20">
<path fill-rule="evenodd" clip-rule="evenodd" d="M5.0002 9.99927C5.0002 9.44727 5.4482 8.99927 6.0002 8.99927C6.5522 8.99927 7.0002 9.44727 7.0002 9.99927C7.0002 10.5513 6.5522 10.9993 6.0002 10.9993C5.4482 10.9993 5.0002 10.5513 5.0002 9.99927ZM10.0002 8.99927C9.4482 8.99927 9.0002 9.44727 9.0002 9.99927C9.0002 10.5513 9.4482 10.9993 10.0002 10.9993C10.5522 10.9993 11.0002 10.5513 11.0002 9.99927C11.0002 9.44727 10.5522 8.99927 10.0002 8.99927ZM14.0002 8.99927C13.4482 8.99927 13.0002 9.44727 13.0002 9.99927C13.0002 10.5513 13.4482 10.9993 14.0002 10.9993C14.5522 10.9993 15.0002 10.5513 15.0002 9.99927C15.0002 9.44727 14.5522 8.99927 14.0002 8.99927ZM17.8986 11.2942C17.3916 14.5482 14.7686 17.2472 11.5196 17.8562C9.9506 18.1522 8.3526 17.9832 6.9026 17.3692C6.4916 17.1952 6.0666 17.1072 5.6496 17.1072C5.4596 17.1072 5.2716 17.1252 5.0866 17.1622L2.2746 17.7242L2.8376 14.9072C2.9556 14.3222 2.8836 13.6962 2.6306 13.0972C2.0166 11.6472 1.8486 10.0502 2.1436 8.48017C2.7526 5.23117 5.4506 2.60817 8.7056 2.10117C11.2956 1.69817 13.8286 2.51417 15.6566 4.34217C17.4856 6.17117 18.3026 8.70517 17.8986 11.2942ZM17.0716 2.92817C14.7866 0.644171 11.6266 -0.374829 8.3976 0.124171C4.3206 0.760171 0.9406 4.04417 0.1776 8.11117C-0.1904 10.0692 0.0216002 12.0632 0.7886 13.8762C0.8856 14.1072 0.9156 14.3222 0.8776 14.5152L0.0196002 18.8032C-0.0463998 19.1312 0.0566002 19.4702 0.2936 19.7062C0.4826 19.8962 0.7376 19.9992 1.0006 19.9992C1.0656 19.9992 1.1306 19.9932 1.1966 19.9802L5.4796 19.1232C5.7256 19.0762 5.9636 19.1452 6.1226 19.2112C7.9376 19.9782 9.9316 20.1892 11.8876 19.8222C15.9556 19.0592 19.2396 15.6792 19.8756 11.6022C20.3776 8.37517 19.3566 5.21317 17.0716 2.92817Z"/>

</symbol>
<symbol id="person" viewBox="0 0 14 18">
<path fill-rule="evenodd" clip-rule="evenodd" d="M9 4C9 2.897 8.103 2 7 2C5.897 2 5 2.897 5 4C5 5.103 5.897 6 7 6C8.103 6 9 5.103 9 4ZM11 4C11 6.206 9.206 8 7 8C4.794 8 3 6.206 3 4C3 1.794 4.794 0 7 0C9.206 0 11 1.794 11 4ZM0 17C0 13.14 3.141 10 7 10C10.859 10 14 13.14 14 17C14 17.552 13.553 18 13 18C12.447 18 12 17.552 12 17C12 14.243 9.757 12 7 12C4.243 12 2 14.243 2 17C2 17.552 1.553 18 1 18C0.447 18 0 17.552 0 17Z"/>

</symbol>
<symbol id="phone" viewBox="0 0 18 18">
<path d="M18 13.42V16.956C18.0001 17.2092 17.9042 17.453 17.7316 17.6382C17.559 17.8234 17.3226 17.9363 17.07 17.954C16.633 17.984 16.276 18 16 18C7.163 18 0 10.837 0 2C0 1.724 0.015 1.367 0.046 0.93C0.0637224 0.677444 0.176581 0.441011 0.361804 0.268409C0.547026 0.0958068 0.790823 -0.000114433 1.044 2.56579e-07H4.58C4.70404 -0.000125334 4.8237 0.045859 4.91573 0.12902C5.00776 0.212182 5.0656 0.326583 5.078 0.45C5.101 0.68 5.122 0.863 5.142 1.002C5.34073 2.38892 5.748 3.73783 6.35 5.003C6.445 5.203 6.383 5.442 6.203 5.57L4.045 7.112C5.36445 10.1865 7.81455 12.6365 10.889 13.956L12.429 11.802C12.4919 11.714 12.5838 11.6509 12.6885 11.6237C12.7932 11.5964 12.9042 11.6068 13.002 11.653C14.267 12.2539 15.6156 12.6601 17.002 12.858C17.141 12.878 17.324 12.9 17.552 12.922C17.6752 12.9346 17.7894 12.9926 17.8724 13.0846C17.9553 13.1766 18.0012 13.2961 18.001 13.42H18Z"/>

</symbol>
<symbol id="search-line" viewBox="0 0 21 21">
<path d="M16.031 14.617L20.314 18.899L18.899 20.314L14.617 16.031C13.0237 17.3082 11.042 18.0029 9 18C4.032 18 0 13.968 0 9C0 4.032 4.032 0 9 0C13.968 0 18 4.032 18 9C18.0029 11.042 17.3082 13.0237 16.031 14.617ZM14.025 13.875C15.2941 12.5699 16.0029 10.8204 16 9C16 5.132 12.867 2 9 2C5.132 2 2 5.132 2 9C2 12.867 5.132 16 9 16C10.8204 16.0029 12.5699 15.2941 13.875 14.025L14.025 13.875Z"/>

</symbol>
<symbol id="send-plane-2-fill" viewBox="0 0 20 22">
<path d="M0 12H6V10H0V0.845999C1.48755e-05 0.759114 0.0226703 0.673732 0.0657334 0.598269C0.108797 0.522806 0.170781 0.459867 0.245577 0.415656C0.320372 0.371445 0.405398 0.347487 0.492273 0.346144C0.579148 0.344802 0.664873 0.36612 0.741 0.407999L19.203 10.562C19.2814 10.6052 19.3468 10.6686 19.3923 10.7456C19.4378 10.8227 19.4618 10.9105 19.4618 11C19.4618 11.0895 19.4378 11.1773 19.3923 11.2544C19.3468 11.3314 19.2814 11.3948 19.203 11.438L0.741 21.592C0.664873 21.6339 0.579148 21.6552 0.492273 21.6539C0.405398 21.6525 0.320372 21.6286 0.245577 21.5843C0.170781 21.5401 0.108797 21.4772 0.0657334 21.4017C0.0226703 21.3263 1.48755e-05 21.2409 0 21.154V12Z"/>

</symbol>
<symbol id="star-fill" viewBox="0 0 24 23">
<path d="M11.9999 18.26L4.94691 22.208L6.52191 14.28L0.586914 8.792L8.61391 7.84L11.9999 0.5L15.3859 7.84L23.4129 8.792L17.4779 14.28L19.0529 22.208L11.9999 18.26Z"/>

</symbol>
<symbol id="thumb-up-fill" viewBox="0 0 22 20">
<path d="M1 8H4V20H1C0.734784 20 0.48043 19.8946 0.292893 19.7071C0.105357 19.5196 0 19.2652 0 19V9C0 8.73479 0.105357 8.48043 0.292893 8.2929C0.48043 8.10536 0.734784 8 1 8ZM6.293 6.707L12.693 0.307005C12.7781 0.221699 12.8911 0.169972 13.0112 0.161336C13.1314 0.152701 13.2506 0.187738 13.347 0.260005L14.2 0.900005C14.4369 1.07785 14.6158 1.32186 14.7143 1.60126C14.8127 1.88066 14.8262 2.18295 14.753 2.47L13.6 7H20C20.5304 7 21.0391 7.21072 21.4142 7.58579C21.7893 7.96086 22 8.46957 22 9V11.104C22.0003 11.3654 21.9493 11.6242 21.85 11.866L18.755 19.381C18.6795 19.5642 18.5513 19.7209 18.3866 19.8311C18.2219 19.9413 18.0282 20.0001 17.83 20H7C6.73478 20 6.48043 19.8946 6.29289 19.7071C6.10536 19.5196 6 19.2652 6 19V7.414C6.00006 7.14881 6.10545 6.8945 6.293 6.707Z"/>

</symbol>
<symbol id="timer" viewBox="0 0 18 21">
<path fill-rule="evenodd" clip-rule="evenodd" d="M12 11H10V9C10 8.447 9.552 8 9 8C8.448 8 8 8.447 8 9V12C8 12.553 8.448 13 9 13H12C12.552 13 13 12.553 13 12C13 11.447 12.552 11 12 11ZM9 18.75C5.278 18.75 2.25 15.722 2.25 12C2.25 8.278 5.278 5.25 9 5.25C12.722 5.25 15.75 8.278 15.75 12C15.75 15.722 12.722 18.75 9 18.75ZM9.988 3.058C9.99 3.037 10 3.021 10 3V2H11C11.552 2 12 1.553 12 1C12 0.447 11.552 0 11 0H7C6.448 0 6 0.447 6 1C6 1.553 6.448 2 7 2H8V3C8 3.021 8.01 3.037 8.012 3.058C3.513 3.552 0 7.372 0 12C0 16.963 4.038 21 9 21C13.962 21 18 16.963 18 12C18 7.372 14.487 3.552 9.988 3.058Z"/>

</symbol>
<symbol id="twitter-fill" viewBox="0 0 22 18">
<path d="M21.1621 2.65599C20.3986 2.99368 19.589 3.21546 18.7601 3.31399C19.6338 2.79142 20.2878 1.969 20.6001 0.999988C19.7801 1.48799 18.8811 1.82999 17.9441 2.01499C17.3147 1.34157 16.4804 0.894951 15.571 0.744572C14.6616 0.594194 13.728 0.748479 12.9153 1.18344C12.1026 1.6184 11.4564 2.30967 11.0772 3.14978C10.6979 3.98989 10.6068 4.93177 10.8181 5.82899C9.15516 5.74564 7.52838 5.31351 6.04334 4.56065C4.55829 3.80779 3.24818 2.75104 2.19805 1.45899C1.82634 2.09744 1.63101 2.82321 1.63205 3.56199C1.63205 5.01199 2.37005 6.29299 3.49205 7.04299C2.82806 7.02208 2.17869 6.84277 1.59805 6.51999V6.57199C1.59825 7.53769 1.93242 8.4736 2.5439 9.22105C3.15538 9.96849 4.00653 10.4815 4.95305 10.673C4.33667 10.84 3.69036 10.8646 3.06305 10.745C3.32992 11.5762 3.85006 12.3032 4.55064 12.8241C5.25123 13.345 6.09718 13.6338 6.97005 13.65C6.10253 14.3313 5.10923 14.835 4.04693 15.1322C2.98464 15.4293 1.87418 15.5142 0.779053 15.382C2.69075 16.6114 4.91615 17.2641 7.18905 17.262C14.8821 17.262 19.0891 10.889 19.0891 5.36199C19.0891 5.18199 19.0841 4.99999 19.0761 4.82199C19.8949 4.23016 20.6017 3.49701 21.1631 2.65699L21.1621 2.65599Z"/>

</symbol>
<symbol id="vector-main" viewBox="0 0 50 50">
<g clip-path="url(#clip0_42_126)">
<path d="M48.5352 0H42.5781C41.7685 0 41.1133 0.655176 41.1133 1.46484V2.92969H29.1247C28.518 1.22832 26.9072 0 25 0C23.0928 0 21.482 1.22832 20.8753 2.92969H8.88672V1.46484C8.88672 0.655176 8.23154 0 7.42188 0H1.46484C0.655176 0 0 0.655176 0 1.46484V7.32422C0 8.13389 0.655176 8.78906 1.46484 8.78906H7.42188C8.23154 8.78906 8.88672 8.13389 8.88672 7.32422V5.83984H14.9027C9.81904 9.01572 6.46699 14.5937 6.06631 20.8413C4.30869 21.4166 3.02734 23.0527 3.02734 25C3.02734 27.4232 4.99863 29.3945 7.42188 29.3945C9.84512 29.3945 11.8164 27.4232 11.8164 25C11.8164 23.1309 10.6386 21.5417 8.99023 20.9075C9.49004 13.9422 14.3502 8.07148 21.1106 6.39648C21.8418 7.81025 23.3015 8.78906 25 8.78906C26.6985 8.78906 28.1582 7.81025 28.8894 6.39648C35.6498 8.07139 40.51 13.9421 41.0098 20.9074C39.3614 21.5417 38.1836 23.1309 38.1836 25C38.1836 27.4232 40.1549 29.3945 42.5781 29.3945C45.0014 29.3945 46.9727 27.4232 46.9727 25C46.9727 23.0527 45.6913 21.4166 43.9337 20.8413C43.533 14.5937 40.181 9.03525 35.0973 5.85938H41.1133V7.32422C41.1133 8.13389 41.7685 8.78906 42.5781 8.78906H48.5352C49.3448 8.78906 50 8.13389 50 7.32422V1.46484C50 0.655176 49.3448 0 48.5352 0Z"/>
<path d="M34.9659 48.1831C34.1997 45.8385 31.9923 44.043 29.3946 44.043H20.6056C18.0079 44.043 15.8005 45.8385 15.0343 48.1831C14.7389 49.0871 15.5079 50 16.4591 50H33.5411C34.4922 50 35.2613 49.0871 34.9659 48.1831Z"/>
<path d="M37.9375 30.0469L26.4649 12.8378V26.7347C28.1662 27.3414 29.3945 28.9522 29.3945 30.8594C29.3945 33.2826 27.4233 35.2539 25 35.2539C22.5768 35.2539 20.6055 33.2826 20.6055 30.8594C20.6055 28.9522 21.8338 27.3414 23.5352 26.7347V12.8378L12.0625 30.0469C11.6748 30.6276 11.7521 31.4016 12.2456 31.8951C14.9348 34.5843 16.6537 38.0486 17.3171 41.7648C18.3347 41.352 19.4414 41.1133 20.6055 41.1133H29.3945C30.5586 41.1133 31.6653 41.3519 32.6829 41.7646C33.3463 38.0483 35.0652 34.5843 37.7544 31.8951C38.248 31.4016 38.3252 30.6276 37.9375 30.0469Z"/>
<path d="M25 29.3945C24.1918 29.3945 23.5352 30.0512 23.5352 30.8594C23.5352 31.6676 24.1918 32.3242 25 32.3242C25.8082 32.3242 26.4648 31.6676 26.4648 30.8594C26.4648 30.0512 25.8082 29.3945 25 29.3945Z"/>
</g>
<defs>
<clipPath id="clip0_42_126">
<rect width="50" height="50"/>
</clipPath>
</defs>

</symbol>
<symbol id="video-fill" viewBox="0 0 18 18">
<path d="M0 0.993C0 0.445 0.445 0 0.993 0H17.007C17.555 0 18 0.445 18 0.993V17.007C17.9997 17.2703 17.895 17.5227 17.7089 17.7089C17.5227 17.895 17.2703 17.9997 17.007 18H0.993C0.729721 17.9997 0.477302 17.895 0.291135 17.7089C0.104969 17.5227 0.000264735 17.2703 0 17.007V0.993ZM7.622 5.415C7.56182 5.37485 7.49187 5.35177 7.41961 5.34822C7.34734 5.34467 7.27547 5.36079 7.21165 5.39486C7.14782 5.42893 7.09443 5.47967 7.05716 5.54168C7.01989 5.60369 7.00013 5.67465 7 5.747V12.253C7.00013 12.3253 7.01989 12.3963 7.05716 12.4583C7.09443 12.5203 7.14782 12.5711 7.21165 12.6051C7.27547 12.6392 7.34734 12.6553 7.41961 12.6518C7.49187 12.6482 7.56182 12.6252 7.622 12.585L12.501 9.333C12.5559 9.29649 12.6009 9.24698 12.632 9.18889C12.6631 9.13079 12.6794 9.06591 12.6794 9C12.6794 8.93409 12.6631 8.86921 12.632 8.81111C12.6009 8.75302 12.5559 8.70351 12.501 8.667L7.621 5.415H7.622Z"/>

</symbol>
<symbol id="youtube-fill" viewBox="0 0 20 16">
<path d="M19.543 2.498C20 4.28 20 8 20 8C20 8 20 11.72 19.543 13.502C19.289 14.487 18.546 15.262 17.605 15.524C15.896 16 10 16 10 16C10 16 4.107 16 2.395 15.524C1.45 15.258 0.708 14.484 0.457 13.502C2.98023e-08 11.72 0 8 0 8C0 8 2.98023e-08 4.28 0.457 2.498C0.711 1.513 1.454 0.738 2.395 0.476C4.107 -1.78814e-07 10 0 10 0C10 0 15.896 -1.78814e-07 17.605 0.476C18.55 0.742 19.292 1.516 19.543 2.498ZM8 11.5L14 8L8 4.5V11.5Z"/>

</symbol></svg>